<?xml version="1.0" encoding="UTF-8" standalone="no"?>
<svg
   xmlns:osb="http://www.openswatchbook.org/uri/2009/osb"
   xmlns:dc="http://purl.org/dc/elements/1.1/"
   xmlns:cc="http://creativecommons.org/ns#"
   xmlns:rdf="http://www.w3.org/1999/02/22-rdf-syntax-ns#"
   xmlns:svg="http://www.w3.org/2000/svg"
   xmlns="http://www.w3.org/2000/svg"
   xmlns:xlink="http://www.w3.org/1999/xlink"
   xmlns:sodipodi="http://sodipodi.sourceforge.net/DTD/sodipodi-0.dtd"
   xmlns:inkscape="http://www.inkscape.org/namespaces/inkscape"
   width="480"
   height="272"
   viewBox="0 0 480 272"
   version="1.1"
   id="svg8"
   inkscape:version="1.0 (4035a4fb49, 2020-05-01)"
   sodipodi:docname="cocoa_press_ui.svg">
  <sodipodi:namedview
     inkscape:snap-grids="true"
     inkscape:snap-others="true"
     inkscape:snap-smooth-nodes="true"
     id="base"
     pagecolor="#ffffff"
     bordercolor="#666666"
     borderopacity="1.0"
     inkscape:pageopacity="0.0"
     inkscape:pageshadow="2"
     inkscape:zoom="1.950039"
     inkscape:cx="188.37913"
     inkscape:cy="69.745779"
     inkscape:document-units="px"
     inkscape:current-layer="layer1"
     showgrid="true"
     units="px"
     inkscape:window-width="1920"
     inkscape:window-height="1051"
     inkscape:window-x="1591"
     inkscape:window-y="-9"
     inkscape:window-maximized="1"
     inkscape:snap-global="true"
     inkscape:snap-nodes="false"
     inkscape:document-rotation="0"
     inkscape:snap-bbox="true"
     inkscape:bbox-nodes="true">
    <inkscape:grid
       snapvisiblegridlinesonly="true"
       dotted="false"
       empspacing="1"
       type="xygrid"
       id="grid3680"
       spacingx="0.25"
       spacingy="0.25"
       units="px" />
  </sodipodi:namedview>
  <defs
     id="defs2">
    <linearGradient
       osb:paint="solid"
       id="linearGradient1777">
      <stop
         id="stop1775"
         offset="0"
         style="stop-color:#58d32e;stop-opacity:1;" />
    </linearGradient>
    <linearGradient
       id="linearGradient4768"
       osb:paint="solid"
       gradientTransform="matrix(0.00333518,0,0,0.22076557,12540.614,19382.166)">
      <stop
         style="stop-color:#ffd32e;stop-opacity:1;"
         offset="0"
         id="stop4766" />
    </linearGradient>
    <linearGradient
       id="linearGradient4762"
       osb:paint="solid"
       gradientTransform="matrix(9.1914415e-5,0,0,9.1914415e-5,182.43353,74.92765)">
      <stop
         style="stop-color:#000000;stop-opacity:1;"
         offset="0"
         id="stop4760" />
    </linearGradient>
    <linearGradient
       gradientUnits="userSpaceOnUse"
       y2="96.880203"
       x2="377.64139"
       y1="96.880203"
       x1="326.33041"
       id="linearGradient1779"
       xlink:href="#linearGradient4768"
       inkscape:collect="always"
       gradientTransform="matrix(1.2414162,0,0,1.2424057,-18.77375,0.39168553)" />
  </defs>
  <metadata
     id="metadata5">
    <rdf:RDF>
      <cc:Work
         rdf:about="">
        <dc:format>image/svg+xml</dc:format>
        <dc:type
           rdf:resource="http://purl.org/dc/dcmitype/StillImage" />
        <dc:title />
      </cc:Work>
    </rdf:RDF>
  </metadata>
  <g
     inkscape:groupmode="layer"
     id="layer1"
     inkscape:label="Cocoa Press"
     style="display:inline;opacity:0.997">
    <path
       sodipodi:nodetypes="ccccccccccccccccccccccccccccccccc"
       id="syringe_outline"
       style="display:inline;fill:url(#linearGradient1779);fill-opacity:1;stroke:none;stroke-width:0.423329;stroke-opacity:1"
       d="m 445.492,22.247 -13.544,-4.278 -14.14,-1.3809 -14.117,1.5352 -13.481,4.4703 -3.007,3.1314 -0.865,4.2699 0.037,12.1627 1.839,4.4088 3.965,2.6912 2.766,1.6783 0.004,118.8431 2.617,10.296 6.931,8.047 0.041,10.938 3.23,7.864 7.248,4.436 0.018,11.082 1.663,2.45 2.96,0.032 1.707,-3.601 v -9.963 l 7.379,-4.591 3.124,-8.114 v -10.533 l 7.234,-8.645 2.329,-11.04 V 50.3079 l 7.15,-4.2922 1.457,-6.1571 -0.04,-11.4242 -4.504,-6.1874 z" />
    <path
       sodipodi:nodetypes="ccccccccccccccccc"
       d="m 417.111,39.3892 -8.259,1.1079 -8.112,3.7331 -1.947,4.145 V 169.342 l 1.569,7.284 16.4,3.865 9.186,-0.647 8.856,-2.778 2.438,-3.596 0.331,-7.594 -0.013,-113.0465 -0.045,-6.726 -1.746,-1.0495 -1.574,-1.6295 -8.067,-3.2677 z"
       style="display:inline;fill:#ff0000;fill-opacity:1;stroke-width:0.423329"
       id="syringe_fluid" />
    <path
       d="m 445.455,22.3226 -13.544,-4.2779 -14.139,-1.381 -14.118,1.5353 -13.48,4.4703 -3.007,3.1313 -0.865,4.2699 0.037,12.1628 1.838,4.4088 3.965,2.6912 2.766,1.6782 0.004,118.8435 2.617,10.295 6.931,8.047 0.041,10.939 3.23,7.864 7.249,4.435 0.017,11.083 1.664,2.45 2.959,0.032 1.707,-3.602 v -9.963 l 7.379,-4.59 3.125,-8.114 v -10.534 l 7.234,-8.644 2.328,-11.04 V 50.3836 l 7.151,-4.2923 1.456,-6.1571 -0.04,-11.4241 -4.503,-6.1875 z m -52.048,5.8274 12.189,-3.8613 12.725,-1.2739 12.712,1.3328 12.153,3.9593 0.484,2.7239 v 3.8189 l -12.513,-3.7659 -13.004,-1.2553 -13.002,1.2553 -12.514,3.7659 0.041,-5.874 z m 33.616,155.657 -9.72,2.467 -9.419,-3.455 -3.25,-3.46 9.959,1.973 10.165,-0.322 7.131,-1.714 z m 8.011,-135.1725 0.046,6.8669 -0.005,114.2716 -0.271,2.983 -1.564,2.236 -8.001,2.512 -8.401,0.537 -14.393,-3.424 -1.184,-5.493 V 48.8675 l 1.31,-2.7051 7.072,-3.2562 7.771,-1.0065 8.227,0.7542 7.599,3.1163 1.773,2.803 0.007,0.0613 z m -9.531,149.5755 -2.116,5.075 -5.037,2.203 -5.102,-1.907 -2.406,-4.889 -0.017,-7.221 7.343,1.19 7.348,-1.169 z m 17.083,-155.0978 -5.425,1.5511 -6.856,-4.1627 -7.879,-1.7872 -10.159,0.2021 -9.625,3.1445 -4.161,2.8599 -5.185,-2.0726 -0.659,-3.4069 12.476,-4.0403 13.04,-1.3467 13.041,1.3467 12.476,4.0403 z"
       style="display:inline;stroke-width:0.423329"
       id="syringe" />
    <path
       id="unload_cartridge_btn"
       d="M 20,15 H 165 V 55 H 20 Z"
       style="display:inline;fill:url(#linearGradient4768);fill-opacity:1;stroke:none;stroke-width:2.15845;stroke-miterlimit:4;stroke-dasharray:none"
       inkscape:connector-curvature="0"
       sodipodi:nodetypes="ccccc" />
    <path
       sodipodi:nodetypes="ccccc"
       inkscape:connector-curvature="0"
       style="display:inline;fill:url(#linearGradient4768);fill-opacity:1;stroke:none;stroke-width:1.83679;stroke-miterlimit:4;stroke-dasharray:none"
       d="m 135,215 h 105 v 40 H 135 Z"
       id="pause_btn" />
    <path
       sodipodi:nodetypes="ccccc"
       inkscape:connector-curvature="0"
       style="display:inline;fill:url(#linearGradient4768);fill-opacity:1;stroke:none;stroke-width:2.15845;stroke-miterlimit:4;stroke-dasharray:none"
       d="m 20,65 h 145 v 40 H 20 Z"
       id="load_chocolate_btn" />
    <path
       id="preheat_chocolate_btn"
       d="m 20,115 h 145 v 40 H 20 Z"
       style="display:inline;fill:url(#linearGradient4768);fill-opacity:1;stroke:none;stroke-width:2.15845;stroke-miterlimit:4;stroke-dasharray:none"
       inkscape:connector-curvature="0"
       sodipodi:nodetypes="ccccc" />
    <path
       sodipodi:nodetypes="ccccc"
       inkscape:connector-curvature="0"
       style="display:inline;fill:url(#linearGradient4768);fill-opacity:1;stroke:none;stroke-width:2.15845;stroke-miterlimit:4;stroke-dasharray:none"
       d="m 20,165 h 145 v 40 H 20 Z"
       id="menu_btn" />
    <path
       id="print_btn"
       d="m 20,215 h 105 v 40 H 20 Z"
       style="display:inline;fill:url(#linearGradient4768);fill-opacity:1;stroke:none;stroke-width:1.83677;stroke-miterlimit:4;stroke-dasharray:none"
       inkscape:connector-curvature="0"
       sodipodi:nodetypes="ccccc" />
    <path
       id="stop_btn"
       d="m 250,215 h 105 v 40 H 250 Z"
       style="display:inline;fill:url(#linearGradient4768);fill-opacity:1;stroke:none;stroke-width:1.83679;stroke-miterlimit:4;stroke-dasharray:none"
       inkscape:connector-curvature="0"
       sodipodi:nodetypes="ccccc" />
    <path
       id="print_time_hms"
       d="m 185,180 h 85 v 25 h -85 z"
       style="display:inline;fill:url(#linearGradient4768);fill-opacity:1;stroke:#ff0000;stroke-width:1.30651;stroke-miterlimit:4;stroke-dasharray:none"
       inkscape:connector-curvature="0"
       sodipodi:nodetypes="ccccc" />
    <path
       sodipodi:nodetypes="ccccc"
       inkscape:connector-curvature="0"
       style="display:inline;fill:url(#linearGradient4768);fill-opacity:1;stroke:#ff0000;stroke-width:1.30651;stroke-miterlimit:4;stroke-dasharray:none"
       d="m 270,180 h 85 v 25 h -85 z"
       id="print_time_percent" />
    <path
       id="print_time_label"
       d="m 185,155 h 170 v 25.1281 H 185 Z"
       style="display:inline;fill:url(#linearGradient4768);fill-opacity:1;stroke:#ff0000;stroke-width:1.85241;stroke-miterlimit:4;stroke-dasharray:none"
       inkscape:connector-curvature="0"
       sodipodi:nodetypes="ccccc" />
    <path
       id="h3_temp"
       d="m 185,125 h 85 v 25 h -85 z"
       style="display:inline;fill:url(#linearGradient4768);fill-opacity:1;stroke:#ff0000;stroke-width:1.30651;stroke-miterlimit:4;stroke-dasharray:none"
       inkscape:connector-curvature="0"
       sodipodi:nodetypes="ccccc" />
    <path
       sodipodi:nodetypes="ccccc"
       inkscape:connector-curvature="0"
       style="display:inline;fill:url(#linearGradient4768);fill-opacity:1;stroke:#ff0000;stroke-width:1.30651;stroke-miterlimit:4;stroke-dasharray:none"
       d="m 185,100 h 85 v 25 h -85 z"
       id="h3_label" />
    <path
       id="chocolate_label"
       d="M 185,20 H 355 V 45 H 185 Z"
       style="display:inline;fill:url(#linearGradient4768);fill-opacity:1;stroke:#ff0000;stroke-width:1.84769;stroke-miterlimit:4;stroke-dasharray:none"
       inkscape:connector-curvature="0"
       sodipodi:nodetypes="ccccc"
       inkscape:transform-center-x="-11.139378"
       inkscape:transform-center-y="74.9985" />
    <path
       inkscape:transform-center-y="74.9985"
       inkscape:transform-center-x="-5.5696891"
       sodipodi:nodetypes="ccccc"
       inkscape:connector-curvature="0"
       style="display:inline;fill:url(#linearGradient4768);fill-opacity:1;stroke:#ff0000;stroke-width:1.30651;stroke-miterlimit:4;stroke-dasharray:none"
       d="m 185,45 h 85 v 25 h -85 z"
       id="h0_label" />
    <path
       id="h0_temp"
       d="m 185,70 h 85 v 25 h -85 z"
       style="display:inline;fill:url(#linearGradient4768);fill-opacity:1;stroke:#ff0000;stroke-width:1.30651;stroke-miterlimit:4;stroke-dasharray:none"
       inkscape:connector-curvature="0"
       sodipodi:nodetypes="ccccc"
       inkscape:transform-center-x="-5.5696891"
       inkscape:transform-center-y="74.9985" />
    <path
       id="h1_label"
       d="m 270,45 h 85 v 25 h -85 z"
       style="display:inline;fill:url(#linearGradient4768);fill-opacity:1;stroke:#ff0000;stroke-width:1.30651;stroke-miterlimit:4;stroke-dasharray:none"
       inkscape:connector-curvature="0"
       sodipodi:nodetypes="ccccc"
       inkscape:transform-center-x="-5.5696905"
       inkscape:transform-center-y="74.9985" />
    <path
       inkscape:transform-center-y="74.9985"
       inkscape:transform-center-x="-5.5696892"
       sodipodi:nodetypes="ccccc"
       inkscape:connector-curvature="0"
       style="display:inline;fill:url(#linearGradient4768);fill-opacity:1;stroke:#ff0000;stroke-width:1.30651;stroke-miterlimit:4;stroke-dasharray:none"
       d="m 270,70 h 85 v 25 h -85 z"
       id="h1_temp" />
    <path
       id="extrude_btn"
       d="m 375.669,235 h 85 v 20 h -85 z"
       style="display:inline;fill:url(#linearGradient4768);fill-opacity:1;stroke:none;stroke-width:1.16858;stroke-miterlimit:4;stroke-dasharray:none"
       inkscape:connector-curvature="0"
       sodipodi:nodetypes="ccccc" />
    <path
       inkscape:transform-center-y="74.9985"
       inkscape:transform-center-x="-5.5696892"
       sodipodi:nodetypes="ccccc"
       inkscape:connector-curvature="0"
       style="display:inline;opacity:0.997;fill:url(#linearGradient4768);fill-opacity:1;stroke:#ff0000;stroke-width:1.30651;stroke-miterlimit:4;stroke-dasharray:none"
       d="m 270,100 h 85 v 25 h -85 z"
       id="h2_label" />
    <path
       id="h2_temp"
       d="m 270,125 h 85 v 25 h -85 z"
       style="display:inline;opacity:0.997;fill:url(#linearGradient4768);fill-opacity:1;stroke:#ff0000;stroke-width:1.30651;stroke-miterlimit:4;stroke-dasharray:none"
       inkscape:connector-curvature="0"
       sodipodi:nodetypes="ccccc"
       inkscape:transform-center-x="-5.5696892"
       inkscape:transform-center-y="74.9985" />
  </g>
</svg>
