<?xml version="1.0" encoding="UTF-8" standalone="no"?>
<svg
   xmlns:osb="http://www.openswatchbook.org/uri/2009/osb"
   xmlns:dc="http://purl.org/dc/elements/1.1/"
   xmlns:cc="http://creativecommons.org/ns#"
   xmlns:rdf="http://www.w3.org/1999/02/22-rdf-syntax-ns#"
   xmlns:svg="http://www.w3.org/2000/svg"
   xmlns="http://www.w3.org/2000/svg"
   xmlns:xlink="http://www.w3.org/1999/xlink"
   xmlns:sodipodi="http://sodipodi.sourceforge.net/DTD/sodipodi-0.dtd"
   xmlns:inkscape="http://www.inkscape.org/namespaces/inkscape"
   sodipodi:docname="cocoa-press-ui-new-flat.svg"
   inkscape:version="1.0 (4035a4fb49, 2020-05-01)"
   id="svg8"
   version="1.1"
   viewBox="0 0 480 272"
   height="272"
   width="480">
  <sodipodi:namedview
     inkscape:snap-grids="false"
     inkscape:snap-others="true"
     inkscape:snap-smooth-nodes="true"
     id="base"
     pagecolor="#ffffff"
     bordercolor="#666666"
     borderopacity="1.0"
     inkscape:pageopacity="0.0"
     inkscape:pageshadow="2"
     inkscape:zoom="1.950039"
     inkscape:cx="221.45187"
     inkscape:cy="90.258194"
     inkscape:document-units="px"
     inkscape:current-layer="layer1"
     showgrid="true"
     units="px"
     inkscape:window-width="1424"
     inkscape:window-height="961"
     inkscape:window-x="1970"
     inkscape:window-y="70"
     inkscape:window-maximized="0"
     inkscape:snap-global="true"
     inkscape:snap-nodes="false"
     inkscape:document-rotation="0">
    <inkscape:grid
       snapvisiblegridlinesonly="true"
       dotted="false"
       empspacing="1"
       type="xygrid"
       id="grid3680"
       spacingx="0.25"
       spacingy="0.25"
       units="px" />
  </sodipodi:namedview>
  <defs
     id="defs2">
    <linearGradient
       osb:paint="solid"
       id="linearGradient1777">
      <stop
         id="stop1775"
         offset="0"
         style="stop-color:#58d32e;stop-opacity:1;" />
    </linearGradient>
    <linearGradient
       id="linearGradient4768"
       osb:paint="solid"
       gradientTransform="matrix(0.00341974,0,0,0.07831043,172.15921,-953.8879)">
      <stop
         style="stop-color:#ffd32e;stop-opacity:1;"
         offset="0"
         id="stop4766" />
    </linearGradient>
    <linearGradient
       id="linearGradient4762"
       osb:paint="solid"
       gradientTransform="matrix(9.1914415e-5,0,0,9.1914415e-5,182.43353,74.92765)">
      <stop
         style="stop-color:#000000;stop-opacity:1;"
         offset="0"
         id="stop4760" />
    </linearGradient>
    <linearGradient
       gradientUnits="userSpaceOnUse"
       y2="96.880203"
       x2="377.64139"
       y1="96.880203"
       x1="326.33041"
       id="linearGradient1779"
       xlink:href="#linearGradient4768"
       inkscape:collect="always" />
  </defs>
  <metadata
     id="metadata5">
    <rdf:RDF>
      <cc:Work
         rdf:about="">
        <dc:format>image/svg+xml</dc:format>
        <dc:type
           rdf:resource="http://purl.org/dc/dcmitype/StillImage" />
        <dc:title />
      </cc:Work>
    </rdf:RDF>
  </metadata>
  <g
     inkscape:groupmode="layer"
     id="layer4"
     inkscape:label="Common"
     style="display:inline">
    <path
       id="z_neg"
       d="m 227.46929,87.03781 16.8626,0 0,33.96992 8.43133,0 -16.86262,16.98497 -16.86263,-16.98497 8.43132,0 0,-33.96992"
       style="display:inline;fill:url(#linearGradient4768);stroke:none;stroke-width:2.67286372;stroke-linecap:butt;stroke-linejoin:miter;stroke-miterlimit:4;stroke-dasharray:none;stroke-opacity:1"
       inkscape:connector-curvature="0"
       sodipodi:nodetypes="cccccccc" />
    <path
       id="z_pos"
       d="m 227.4684,70.05277 16.8626,0 0,-33.969932 8.43133,0 -16.86262,-16.98498 -16.86263,16.98498 8.43132,0 0,33.969932"
       style="display:inline;fill:url(#linearGradient4768);stroke:none;stroke-width:2.67212605;stroke-linecap:butt;stroke-linejoin:miter;stroke-miterlimit:4;stroke-dasharray:none;stroke-opacity:1"
       inkscape:connector-curvature="0"
       sodipodi:nodetypes="cccccccc" />
    <path
       y_pos="path4514"
       id="y_neg"
       d="m 98.396479,92.23811 19.310921,0 -14.05722,29.42617 9.65549,0 -26.339549,14.71311 -12.28234,-14.71311 9.65549,0 14.057208,-29.42617"
       style="display:inline;fill:url(#linearGradient4768);stroke:none;stroke-width:2.6725297;stroke-linecap:butt;stroke-linejoin:miter;stroke-miterlimit:4;stroke-dasharray:none;stroke-opacity:1"
       inkscape:connector-curvature="0"
       sodipodi:nodetypes="cccccccc" />
    <path
       id="y_pos"
       d="m 112.45367,62.811908 19.31092,0 14.05721,-29.42616 9.65548,0 -12.28234,-14.71309 -26.33955,14.71309 9.65549,0 -14.05721,29.42616"
       style="display:inline;fill:url(#linearGradient4768);stroke:none;stroke-width:2.67286372;stroke-linecap:butt;stroke-linejoin:miter;stroke-miterlimit:4;stroke-dasharray:none;stroke-opacity:1"
       inkscape:connector-curvature="0"
       sodipodi:nodetypes="cccccccc" />
    <path
       id="x_neg"
       d="m 99.48386,70.16848 -7.028589,14.71308 -38.62186,0 -3.51431,7.35655 -12.28232,-14.71309 26.33954,-14.713112 -3.51431,7.356572 38.621849,0"
       style="display:inline;fill:url(#linearGradient4768);stroke:none;stroke-width:2.6725297;stroke-linecap:butt;stroke-linejoin:miter;stroke-miterlimit:4;stroke-dasharray:none;stroke-opacity:1"
       inkscape:connector-curvature="0"
       sodipodi:nodetypes="cccccccc" />
    <path
       x_pos=""
       id="x_pos"
       d="m 137.90577,70.16848 -7.02859,14.71308 38.62186,0 -3.51432,7.35655 26.33955,-14.71309 -12.28233,-14.713112 -3.51431,7.356572 -38.62186,0"
       style="display:inline;fill:url(#linearGradient4768);stroke:none;stroke-width:2.6725297;stroke-linecap:butt;stroke-linejoin:miter;stroke-miterlimit:4;stroke-dasharray:none;stroke-opacity:1"
       inkscape:connector-curvature="0"
       sodipodi:nodetypes="cccccccc" />
    <path
       id="usb_btn"
       d="m 10.025377,204.89731 102.214313,0 0,54.56405 -102.214313,0 0,-54.56405"
       style="display:inline;fill:url(#linearGradient4768);fill-opacity:1;stroke:none;stroke-width:2.11660099;stroke-miterlimit:4;stroke-dasharray:none"
       inkscape:connector-curvature="0"
       sodipodi:nodetypes="ccccc" />
    <path
       id="menu_btn"
       d="m 122.66409,204.89731 102.21431,0 0,54.56405 -102.21431,0 0,-54.56405"
       style="display:inline;fill:url(#linearGradient4768);fill-opacity:1;stroke:none;stroke-width:2.11660099;stroke-miterlimit:4;stroke-dasharray:none"
       inkscape:connector-curvature="0"
       sodipodi:nodetypes="ccccc" />
    <path
       sodipodi:nodetypes="cccccccc"
       inkscape:connector-curvature="0"
       id="e_pos"
       d="m 420.58839,100.39259 16.8626,0 0,33.96992 8.43133,0 -16.86262,16.98497 -16.86263,-16.98497 8.43132,0 0,-33.96992"
       style="display:inline;fill:url(#linearGradient4768);stroke:none;stroke-width:2.67212605;stroke-linecap:butt;stroke-linejoin:miter;stroke-miterlimit:4;stroke-dasharray:none;stroke-opacity:1" />
    <path
       id="e_neg"
       d="m 420.58839,83.407558 16.8626,0 0,-33.96993 8.43133,0 -16.86262,-16.98498 -16.86263,16.98498 8.43132,0 0,33.96993"
       style="display:inline;fill:url(#linearGradient4768);stroke:none;stroke-width:2.67212605;stroke-linecap:butt;stroke-linejoin:miter;stroke-miterlimit:4;stroke-dasharray:none;stroke-opacity:1"
       inkscape:connector-curvature="0"
       sodipodi:nodetypes="cccccccc" />
    <path
       style="display:inline;fill:#ff0000;fill-opacity:1;stroke:none;stroke-width:4.76522875;stroke-miterlimit:4;stroke-dasharray:none"
       d="m 25.44789,157.53998 128.43137,0 0,23 -128.43137,0"
       id="fine_label"
       inkscape:connector-curvature="0"
       sodipodi:nodetypes="cccc" />
    <path
       style="display:inline;fill:#ff0000;fill-opacity:1;stroke:none;stroke-width:3.69248986;stroke-miterlimit:4;stroke-dasharray:none"
       d="m 162.94789,157.53998 77.11558,0 0,23 -77.11558,0"
       id="fine_toggle"
       inkscape:connector-curvature="0"
       sodipodi:nodetypes="cccc" />
    <g
       data-name="Layer 2"
       id="Layer_2"
       transform="matrix(0.17237606,0,0,0.17237606,93.526455,30.707012)" />
    <g
       data-name="Layer 2"
       id="Layer_2-4"
       transform="matrix(0.20234707,0,0,0.20234707,160.54642,1.8151156)" />
  </g>
  <g
     inkscape:groupmode="layer"
     id="layer1"
     inkscape:label="Cocoa Press"
     style="display:inline">
    <path
       id="h1_temp"
       d="m 292.82831,235.0684 59.43727,0 0,30.92694 -59.43727,0"
       style="display:inline;fill:#ff0000;fill-opacity:1;stroke:none;stroke-width:4.79754782;stroke-miterlimit:4;stroke-dasharray:none"
       inkscape:connector-curvature="0"
       sodipodi:nodetypes="cccc" />
    <path
       id="h1_label"
       d="m 292.82831,202.47505 59.41928,0 0,30.92696 -59.41928,0"
       style="display:inline;fill:#ff0000;fill-opacity:1;stroke:none;stroke-width:4.79754782;stroke-miterlimit:4;stroke-dasharray:none"
       inkscape:connector-curvature="0"
       sodipodi:nodetypes="cccc" />
    <path
       id="h0_temp"
       d="m 232.1578,235.0684 59.43727,0 0,30.92691 -59.43727,0"
       style="display:inline;fill:#ff0000;fill-opacity:1;stroke:none;stroke-width:4.79754782;stroke-miterlimit:4;stroke-dasharray:none"
       inkscape:connector-curvature="0"
       sodipodi:nodetypes="cccc" />
    <path
       id="h0_label"
       d="m 232.1578,202.47505 59.43727,0 0,30.92698 -59.43727,0"
       style="display:inline;fill:#ff0000;fill-opacity:1;stroke:none;stroke-width:4.79754782;stroke-miterlimit:4;stroke-dasharray:none"
       inkscape:connector-curvature="0"
       sodipodi:nodetypes="cccc" />
    <path
       id="h2_temp"
       d="m 353.4988,235.0684 59.43726,0 0,30.92694 -59.43726,0"
       style="display:inline;fill:#ff0000;fill-opacity:1;stroke:none;stroke-width:4.79754782;stroke-miterlimit:4;stroke-dasharray:none"
       inkscape:connector-curvature="0"
       sodipodi:nodetypes="cccc" />
    <path
       id="h2_label"
       d="m 353.4988,202.47505 59.41927,0 0,30.92696 -59.41927,0"
       style="display:inline;fill:#ff0000;fill-opacity:1;stroke:none;stroke-width:4.79754782;stroke-miterlimit:4;stroke-dasharray:none"
       inkscape:connector-curvature="0"
       sodipodi:nodetypes="cccc" />
    <path
       id="h3_temp"
       d="m 414.16927,234.87609 59.43725,0 0,30.92694 -59.43725,0"
       style="display:inline;fill:#ff0000;fill-opacity:1;stroke:none;stroke-width:4.79754782;stroke-miterlimit:4;stroke-dasharray:none"
       inkscape:connector-curvature="0"
       sodipodi:nodetypes="cccc" />
    <path
       id="h3_label"
       d="m 414.16927,202.28274 59.41927,0 0,30.92696 -59.41927,0"
       style="display:inline;fill:#ff0000;fill-opacity:1;stroke:none;stroke-width:4.79754782;stroke-miterlimit:4;stroke-dasharray:none"
       inkscape:connector-curvature="0"
       sodipodi:nodetypes="cccc" />
    <path
       sodipodi:nodetypes="ccccccccccccccccccccccccccccccccc"
       id="syringe_outline"
       style="display:inline;fill:url(#linearGradient1779);fill-opacity:1.0;stroke:none;stroke-width:0.340869;stroke-opacity:1"
       d="m 373.9804,17.591102 -10.91,-3.4433 -11.39,-1.1115 -11.372,1.2357 -10.859,3.5981 -2.422,2.5204 -0.697,3.4368 0.03,9.7897 1.481,3.5486 3.194,2.1661 2.228,1.3508 0.003,95.655598 2.108,8.287 5.583,6.477 0.033,8.804 2.602,6.33 5.839,3.57 0.014,8.92 1.34,1.972 2.384,0.026 1.375,-2.899 v -8.019 l 5.944,-3.695 2.517,-6.531 v -8.478 l 5.827,-6.958 1.876,-8.886 V 40.177102 l 5.76,-3.4548 1.173,-4.9558 -0.032,-9.1952 -3.628,-4.9802 h -0.001" />
    <path
       sodipodi:nodetypes="ccccccccccccccccc"
       d="m 351.11914,31.388672 -6.65318,0.891758 -6.53432,3.004726 -1.56836,3.336328 v 97.364846 l 1.26367,5.86328 13.21112,3.11066 7.3995,-0.52057 7.13352,-2.23658 1.96427,-2.89449 0.26633,-6.11175 -0.0103,-90.990192 -0.0367,-5.413719 -1.40626,-0.844747 -1.26757,-1.311503 -6.49802,-2.630206 z"
       style="display:inline;fill:#ff0000;fill-opacity:1;stroke-width:0.340869"
       id="syringe_fluid" />
    <path
       d="M 373.951 17.652 L 363.041 14.2087 L 351.651 13.0972 L 340.279 14.3329 L 329.42 17.931 L 326.998 20.4514 L 326.301 23.8882 L 326.331 33.6779 L 327.812 37.2265 L 331.006 39.3926 L 333.234 40.7434 L 333.237 136.399 L 335.345 144.686 L 340.928 151.163 L 340.961 159.967 L 343.563 166.297 L 349.402 169.867 L 349.416 178.787 L 350.756 180.759 L 353.14 180.785 L 354.515 177.886 L 354.515 169.867 L 360.459 166.172 L 362.976 159.641 L 362.976 151.163 L 368.803 144.205 L 370.679 135.319 L 370.679 40.238 L 376.439 36.7832 L 377.612 31.8274 L 377.58 22.6322 L 373.952 17.652 L 373.951 17.652 M 332.024 22.3424 L 341.843 19.2345 L 352.093 18.2091 L 362.333 19.2819 L 372.123 22.4687 L 372.513 24.6611 L 372.513 27.7349 L 362.433 24.7038 L 351.958 23.6934 L 341.484 24.7038 L 331.404 27.7349 L 331.437 23.007 L 332.024 22.3424 L 332.024 22.3424 M 359.103 147.629 L 351.273 149.615 L 343.686 146.834 L 341.068 144.049 L 349.09 145.637 L 357.278 145.378 L 363.023 143.998 L 359.103 147.629 L 359.103 147.629 M 365.556 38.8302 L 365.593 44.3573 L 365.589 136.333 L 365.371 138.734 L 364.111 140.534 L 357.666 142.556 L 350.899 142.988 L 339.305 140.232 L 338.351 135.811 L 338.351 39.0177 L 339.406 36.8404 L 345.103 34.2195 L 351.363 33.4094 L 357.99 34.0164 L 364.111 36.5247 L 365.539 38.7808 L 365.545 38.8302 L 365.556 38.8302 M 357.879 159.222 L 356.174 163.307 L 352.117 165.08 L 348.007 163.545 L 346.069 159.61 L 346.055 153.798 L 351.97 154.756 L 357.889 153.815 L 357.879 159.222 L 357.879 159.222 M 371.64 34.3853 L 367.27 35.6338 L 361.747 32.2833 L 355.4 30.8448 L 347.217 31.0074 L 339.464 33.5384 L 336.112 35.8403 L 331.935 34.1721 L 331.404 31.4299 L 341.454 28.1779 L 351.958 27.094 L 362.463 28.1779 L 372.513 31.4299 L 371.64 34.3853 L 371.64 34.3853"
       style="display:inline;stroke-width:0.340869"
       id="syringe" />
    <path
       style="display:inline;stroke-width:0.196262"
       id="padlock"
       d="M 136.472 76.2719 L 134.625 76.2719 L 134.625 62.1783 L 133.221 55.1183 L 129.222 49.1331 L 123.236 45.1339 L 116.176 43.7296 L 115.961 43.7296 L 108.869 45.2615 L 103.071 49.286 L 99.1592 55.198 L 97.7239 62.3922 L 97.7239 69.6029 L 99.8507 73.2898 L 104.107 73.2898 L 106.234 69.6029 L 106.234 62.1783 L 109.204 55.1026 L 116.326 52.2435 L 123.239 55.2706 L 126.107 62.353 L 126.107 76.2719 L 95.8829 76.2719 L 94.411 77.7438 L 94.411 103.358 L 96.7223 108.929 L 102.293 111.242 L 130.06 111.242 L 135.632 108.93 L 137.944 103.358 L 137.944 77.7438 L 136.472 76.2719 L 136.472 76.2719 M 116.379 49.2995 L 111.391 50.2256 L 107.146 53.0042 L 104.301 57.2052 L 103.298 62.1783 L 103.298 69.6068 L 102.643 70.7435 L 101.331 70.7435 L 100.676 69.6068 L 100.676 62.3961 L 101.881 56.3367 L 105.167 51.3574 L 110.039 47.9677 L 116.002 46.6775 L 121.989 47.8072 L 127.078 51.1565 L 130.484 56.2082 L 131.681 62.1822 L 131.681 76.2719 L 129.059 76.2719 L 129.059 62.353 L 128.061 57.3381 L 125.341 53.2091 L 121.31 50.3886 L 116.379 49.2995 L 116.379 49.2995 M 135 79.2158 L 135 100 L 97.3569 100 L 97.3569 79.2158 L 135 79.2158 M 130.06 108.298 L 102.293 108.298 L 98.8015 106.849 L 97.3529 103.358 L 97.3529 101.57 L 134.996 101.57 L 134.996 103.356 L 133.55 106.847 L 130.06 108.298 L 130.06 108.298"
       class="cls-1" />
    <path
       d="m 457.121,92.4524 -28.622,-30.9914 -1.113,-0.4859 -1.113,0.4859 -8.701,9.4152 V 64.652 l -1.065,-3.4518 -2.602,-1.4045 h -3.844 l -2.604,1.4083 -1.063,3.448 v 18.3164 l -8.747,9.484 -0.276,1.6385 1.391,0.9091 h 6.013 v 28.903 l 1.518,1.518 h 42.189 L 450,123.903 V 95 h 6.014 l 1.39,-0.9091 -0.275,-1.6385 h -0.008 m -48.693,-27.8004 1.643,-2.8329 h 3.844 l 1.644,2.8329 v 8.4156 l -7.123,7.7135 -0.008,-16.1291 m 22.895,57.734 h -7.881 v -12.459 l 0.536,-0.534 h 6.811 l 0.534,0.534 v 12.459 m 17.159,-30.4212 -1.517,1.5176 v 28.9036 h -13.618 v -12.459 l -2.558,-2.558 h -6.811 l -2.56,2.558 v 12.459 H 407.811 V 93.4824 l -0.445,-1.0731 -1.073,-0.4445 h -4.065 l 25.156,-27.2379 25.145,27.2379 h -4.047"
       style="display:inline;stroke-width:0.202347"
       id="home_e" />
    <path
       id="home_z"
       style="display:inline;stroke-width:0.202347"
       d="m 267.71085,77.422999 -28.622,-30.991397 -1.113,-0.4859 -1.113,0.4859 -8.701,9.4152 v -6.2242 l -1.065,-3.4518 -2.602,-1.4045 h -3.844 l -2.604,1.4083 -1.063,3.448 v 18.316397 l -8.747,9.484 -0.276,1.6385 1.391,0.9091 h 6.013 v 28.902991 l 1.518,1.518 h 42.189 l 1.518,-1.518 V 79.970599 h 6.014 l 1.39,-0.9091 -0.275,-1.6385 h -0.008 m -48.693,-27.800397 1.643,-2.8329 h 3.844 l 1.644,2.8329 v 8.4156 l -7.123,7.713497 -0.008,-16.129097 m 22.895,57.733988 h -7.881 V 94.897595 l 0.536,-0.534 h 6.811 l 0.534,0.534 v 12.458995 m 17.159,-30.421191 -1.517,1.5176 v 28.903591 h -13.618 V 94.897595 l -2.558,-2.558 h -6.811 l -2.56,2.558 v 12.458995 h -13.607 V 78.452999 l -0.445,-1.0731 -1.073,-0.4445 h -4.065 l 25.156,-27.237897 25.145,27.237897 h -4.047" />
  </g>
  <g
     inkscape:groupmode="layer"
     id="layer2"
     inkscape:label="Lulzbot Bio"
     style="display:none">
    <path
       style="display:inline;fill:#ff0000;fill-opacity:1;stroke:none;stroke-width:4.79754782;stroke-miterlimit:4;stroke-dasharray:none"
       d="m 386.19104,221.23601 78.43138,0 0,38.1751 -78.43138,0"
       id="actual_temp"
       inkscape:connector-curvature="0"
       sodipodi:nodetypes="cccc" />
    <path
       style="display:inline;fill:#ff0000;fill-opacity:1;stroke:none;stroke-width:4.79754782;stroke-miterlimit:4;stroke-dasharray:none"
       d="m 386.19104,176.16565 78.43138,0 0,38.17509 -78.43138,0"
       id="bed_icon"
       inkscape:connector-curvature="0"
       sodipodi:nodetypes="cccc" />
  </g>
</svg>
