<?xml version="1.0" encoding="UTF-8" standalone="no"?>
<!-- Created with Inkscape (http://www.inkscape.org/) -->

<svg
   xmlns:osb="http://www.openswatchbook.org/uri/2009/osb"
   xmlns:dc="http://purl.org/dc/elements/1.1/"
   xmlns:cc="http://creativecommons.org/ns#"
   xmlns:rdf="http://www.w3.org/1999/02/22-rdf-syntax-ns#"
   xmlns:svg="http://www.w3.org/2000/svg"
   xmlns="http://www.w3.org/2000/svg"
   xmlns:sodipodi="http://sodipodi.sourceforge.net/DTD/sodipodi-0.dtd"
   xmlns:inkscape="http://www.inkscape.org/namespaces/inkscape"
   inkscape:export-ydpi="91.400002"
   inkscape:export-xdpi="91.400002"
   inkscape:export-filename="/home/aleph/shared-j/Documents/Creative/logos_and_brand_guidelines/LulzBot_Logo_(R)/Vector/Black_BW/Lulzbot_Logo_Green"
   sodipodi:docname="Cocoa_Press_Logo_Landscape.svg"
   viewBox="0 0 480 272"
   height="272"
   width="480"
   xml:space="preserve"
   inkscape:version="0.91 r13725"
   version="1.1"
   id="svg2"
   enable-background="new"><sodipodi:namedview
     inkscape:current-layer="g5284"
     inkscape:window-maximized="0"
     inkscape:window-y="7"
     inkscape:window-x="1290"
     inkscape:cy="135.1785"
     inkscape:cx="204.4664"
     inkscape:zoom="1.9127176"
     showgrid="false"
     id="namedview4"
     inkscape:window-height="702"
     inkscape:window-width="1373"
     inkscape:pageshadow="2"
     inkscape:pageopacity="0"
     guidetolerance="10"
     gridtolerance="10"
     objecttolerance="10"
     borderopacity="1"
     bordercolor="#666666"
     pagecolor="#fffff0"
     scale-x="1" /><metadata
     id="metadata8"><rdf:RDF><cc:Work
         rdf:about=""><dc:format>image/svg+xml</dc:format><dc:type
           rdf:resource="http://purl.org/dc/dcmitype/StillImage" /><dc:title /></cc:Work></rdf:RDF></metadata><defs
     id="defs6"><linearGradient
       osb:paint="solid"
       id="linearGradient4829"><stop
         id="stop4827"
         offset="0"
         style="stop-color:#c1d82f;stop-opacity:1;" /></linearGradient><filter
       id="filter4953"
       style="color-interpolation-filters:sRGB"
       inkscape:collect="always"><feBlend
         id="feBlend4955"
         in2="BackgroundImage"
         mode="lighten"
         inkscape:collect="always" /></filter></defs><g
     style="display:inline;filter:url(#filter4953)"
     id="g5284"
     inkscape:groupmode="layer"
     inkscape:label="Logo"><g
       id="g5286"
       clip-path="url(#clipPath18)"
       style="fill:#ccff00;fill-opacity:0" /><g
       id="g3361"><path
         sodipodi:nodetypes="ccccccccccccccccccccccccccccccccccccccccccccccccccccccc"
         style="display:none;fill:#f06f1f"
         d="m 244.63908,213.46765 -21.35521,-2.71648 -18.66819,-5.74966 -15.57843,-8.61394 -12.08593,-11.30929 -6.40148,-10.21158 -3.76971,-11.27554 -0.7931,-15.57519 1.00715,-19.08866 0.99706,-16.35084 3.15366,-12.07259 6.18112,-11.05105 9.03706,-9.794571 11.72147,-8.303137 10.72057,-5.167725 17.03288,-5.119766 19.10528,-2.502652 18.93655,0.233609 16.68539,2.395922 14.87553,4.186791 14.02963,6.566225 3.17171,3.265731 1.35738,3.69073 -1.97042,37.536163 -2.09039,4.57792 -9.57615,9.96042 -2.61593,1.59399 -6.79001,1.43001 -7.64781,-1.71465 -3.67772,-1.52576 -10.22833,-3.43016 -10.4271,-1.92174 -13.57603,0.01 -11.26781,2.16123 -9.21632,4.26314 -3.77595,2.85447 4.22367,3.92931 10.1034,5.28784 12.97503,2.76161 13.30882,-0.0853 10.42132,-2.06214 10.34044,-3.62549 10.79916,-2.83094 5.8638,1.00843 4.91311,3.29452 7.61262,8.09848 2.45664,5.84835 -1.8502,36.93377 -1.39353,3.59391 -3.05174,3.16354 -10.97633,5.34524 -17.89639,5.42313 -19.36831,2.63328 -14.98193,0.0512 0,-1.1e-4"
         id="outline"
         inkscape:connector-curvature="0" /><path
         inkscape:connector-curvature="0"
         id="shadow"
         d="M252.38281 88.140625L240.904469375 89.2900997031L229.7615025 92.883797125L220.344716875 99.3207522344L214.04492 109.0L212.43559125 119.83134125L213.350939844 125.228702969L215.70898 130.06836L218.606252031 129.689560625L221.26514125 128.0338375L226.76308 124.73591L241.7170375 120.568342656L257.1527125 120.09988875L272.46061375 122.801600469L287.03125 128.14453L291.356176875 128.753499687L295.395815 127.64931L301.875 122.03516L306.1943475 116.65289875L307.21305 109.86468L307.83083875 100.5105445L307.49414 91.347656L304.648418125 91.1709117344L302.22624 93.031678875L299.792991875 95.3448683281L296.91406 96.525391L290.024161563 96.5647156719L283.42732 94.487980125L270.19141 89.931641L252.38281 88.140625L252.38281 88.140625M173.70312 140.91602L171.710443594 142.936889063L171.23431125 146.029555L171.0957 152.64648L173.215501563 167.245125156L180.027845 180.18239375L190.335053437 190.804830469L202.93945 198.45898L221.293374219 204.9446375L240.53015625 208.063125L260.074612656 208.1095225L279.35156 205.37891L293.4852025 201.16196L306.31641 194.1875L307.71422625 182.50196375L308.21637 170.61443L307.6727025 166.272395L306.08886 165.29712875L303.86523 166.00586L281.435205625 173.540647187L257.958755 176.5733325L234.248041875 175.225114062L211.11523 169.61719L200.387250625 165.021177187L190.5868975 158.6801375L182.049735625 150.746589062L175.11133 141.37305L173.70312 140.91602L173.70312 140.91602"
         style="fill:#652a1b;fill-opacity:1" /><path
         inkscape:connector-curvature="0"
         id="highlight"
         d="m 251.46875,88.490234 -7.21599,0.525091 -6.5919,2.973909 -5.01657,5.054488 -2.48999,6.766828 0.44929,4.92497 2.39002,4.19907 6.44194,7.54393 12.13307,-0.8734 12.06355,0.96953 11.78408,2.72224 11.29469,4.38475 3.36492,0.16584 2.68899,-2.04906 3.58867,-6.23397 0.68176,-11.4599 -4.47278,-10.489316 -16.74069,-5.65084 -8.49052,-2.38789 -8.79223,-1.062832 -7.07031,-0.02344 0,2e-6 m -50.05859,77.931646 -2.93607,2.59167 -0.89943,3.83553 1.45659,8.11967 6.64453,18.43359 19.99283,6.13454 20.80147,2.52251 20.95374,-0.98921 20.44968,-4.40061 5.88901,-1.94441 4.36249,-3.2818 -1.13377,-6.74735 -2.76981,-6.26853 -7.5847,-11.531 -21.3176,3.46043 -21.57295,0.25133 -21.26782,-3.2232 -20.40218,-6.96316 -0.66601,0 0,0"
         style="fill:#ba3c24"
         sodipodi:nodetypes="cccccccccccccccccccccccccccccccccccccccccc" /><path
         sodipodi:nodetypes="ccccccccccccccccccccccccccccccccccccccccccccccccccccccccccccccccccccccccccccccccccccccccccccccccccccccccccccccccccccccccccccccccccccccccccccccccccccccccccccccccccccc"
         inkscape:connector-curvature="0"
         id="stroke"
         d="m 244.71513,213.10814 -15.80879,-1.68108 -14.50553,-3.33159 -12.98929,-4.91822 -11.26009,-6.44092 -12.92679,-11.93722 -6.37173,-10.14132 -3.69119,-11.06046 -0.94336,-9.79374 1.99725,-39.85821 2.97283,-12.55477 6.26607,-11.480494 9.36702,-10.140265 12.27567,-8.534089 14.37276,-6.368015 16.18453,-4.158013 17.53883,-1.866288 18.43567,0.507158 20.61503,3.575289 18.47488,6.752094 6.95085,4.832176 1.94705,5.596692 -0.91262,18.844132 -1.30403,18.465923 -3.46488,5.35032 -7.69357,7.82567 -4.14956,2.28332 -4.68206,0.7274 -9.85111,-2.45884 -10.87459,-3.8667 -10.83522,-2.16492 -12.32017,-0.23266 -10.66586,1.55509 -8.49884,2.989 -7.6811,5.28313 4.41093,4.22163 8.10757,4.5245 9.76428,2.81549 10.18456,1.04442 10.2244,-0.58287 10.28736,-2.21333 10.37344,-3.84693 9.50376,-2.14934 4.0065,0.42163 4.31412,2.09274 5.22705,4.95135 5.6893,6.94799 0.9896,4.7333 -0.90325,18.79052 -1.84425,19.49355 -3.35739,3.70033 -7.20109,3.80569 -18.67406,6.30237 -20.644,3.20496 -16.42689,0.14242 0,0 m 13.91722,-6.83859 18.09457,-2.36154 16.58442,-4.88589 7.22479,-3.28786 4.34066,-3.01182 0.83095,-11.96053 0.4783,-13.49148 -2.39559,0.95962 -18.54045,6.51081 -3.87857,0.8545 -25.55294,2.94607 -15.34895,-0.55135 -14.76702,-2.15754 -15.25141,-4.3292 -13.34355,-6.04293 -12.90463,-9.55637 -9.53069,-11.84269 -1.01148,-1.0964 -0.585,10.83085 2.684,14.65429 6.40359,11.40403 9.44453,9.30905 12.19212,7.4903 3.27017,1.55924 3.87857,1.56708 15.72439,4.31823 17.81384,2.16051 14.14538,0.0109 0,1.2e-4 m 5.24748,-34.89047 19.53288,-3.2882 17.57972,-6.23125 4.91285,-2.74529 0.86402,-3.01479 -4.63611,-5.47579 -4.88791,-4.5069 -4.00999,-0.89422 -7.00887,1.888 -16.7552,5.46188 -16.4666,1.47568 -12.4388,-1.32202 -10.83725,-3.3369 -11.35354,-7.21904 -7.56674,-9.84816 -3.30584,-12.90107 0.62455,-7.68137 2.51401,-7.30056 6.59819,-9.010278 5.80216,-4.553758 6.92545,-3.48757 17.48613,-3.881277 14.14538,0.07338 12.4021,2.349271 12.82216,4.576863 6.18456,1.594879 2.66406,-0.379093 6.538,-5.561596 4.25032,-4.947137 0.12469,-2.12992 -4.60312,-3.169789 -16.27438,-6.101512 -18.10041,-3.463705 -15.98368,-0.830231 -15.39382,1.04418 -14.4606,2.873534 -13.18405,4.657835 -11.10206,6.059966 -9.19816,7.61956 -6.98369,8.551694 -4.40598,9.354754 -2.0937,12.06877 1.67855,13.16605 5.63704,11.89086 9.37676,10.29242 12.89772,8.37076 19.26698,6.91921 23.56718,3.26206 16.65504,-0.27018 0,0 m -45.4256,-44.03116 8.89469,-5.05905 10.57604,-3.16378 2.58571,-0.39758 2.69388,-0.29498 5.09538,-0.39103 18.17154,1.2463 18.53277,5.9025 5.94954,1.44664 4.71591,-1.30868 8.88811,-9.4516 0.91394,-10.98128 0.60504,-11.148113 -0.21948,-1.045886 -1.49455,1.272665 -4.81527,3.626558 -5.47563,1.389962 -10.34286,-2.380153 -11.2985,-4.033719 -10.83217,-2.15594 -14.29748,-0.07777 -9.5512,1.783842 -8.87763,3.40834 -6.93072,4.995324 -4.79643,6.40023 -2.47477,7.62306 0.0732,7.62796 2.08659,6.21322 1.62435,-1.04704 0,0"
         style="fill:#3b2114" /><path
         sodipodi:nodetypes="cccccccccccccccccccccccccccccccccccccccccccccccccc"
         style="fill:#f27121;fill-opacity:1"
         d="m 263.87983,171.37908 19.53288,-3.2882 17.57972,-6.23125 4.91285,-2.74529 0.86402,-3.01479 -4.63611,-5.47579 -4.88791,-4.5069 -4.00999,-0.89422 -7.00887,1.888 -16.7552,5.46188 -16.4666,1.47568 -12.4388,-1.32202 -10.83725,-3.3369 -11.35354,-7.21904 -7.56674,-9.84816 -3.30584,-12.90107 0.62455,-7.68137 2.51401,-7.30056 6.59819,-9.010278 5.80216,-4.553758 6.92545,-3.48757 17.48613,-3.881277 14.14538,0.07338 12.4021,2.349271 12.82216,4.576863 6.18456,1.594879 2.66406,-0.379093 6.538,-5.561596 4.25032,-4.947137 0.12469,-2.12992 -4.60312,-3.169789 -16.27438,-6.101512 -18.10041,-3.463705 -15.98368,-0.830231 -15.39382,1.04418 -14.4606,2.873534 -13.18405,4.657835 -11.10206,6.059966 -9.19816,7.61956 -6.98369,8.551694 -4.40598,9.354754 -2.0937,12.06877 1.67855,13.16605 5.63704,11.89086 9.37676,10.29242 12.89772,8.37076 19.26698,6.91921 23.56718,3.26206 16.65504,-0.27018 0,0"
         id="surface"
         inkscape:connector-curvature="0" /></g></g></svg>